<svg data-v-423bf9ae="" xmlns="http://www.w3.org/2000/svg" viewBox="0 0 282 90" class="iconLeft"><!----><!----><!----><g data-v-423bf9ae="" id="6374ee86-605a-4d92-a302-d3f752a52ea5" fill="black" transform="matrix(4.294917598649483,0,0,4.294917598649483,77.85191550483759,5.1216899663224)"><path d="M8.71 13.55L5.67 13.55L4.31 11.56L2.86 13.55L-0.03 13.55L2.86 9.76L0.06 5.96L3.05 5.96L4.40 7.88L5.80 5.96L8.61 5.96L5.81 9.66L8.71 13.55ZM9.52 13.55L9.52 5.96L12.18 5.96L12.18 13.55L9.52 13.55ZM10.85 5.12L10.85 5.12Q10.12 5.12 9.67 4.72L9.67 4.72L9.67 4.72Q9.23 4.31 9.23 3.71L9.23 3.71L9.23 3.71Q9.23 3.11 9.67 2.70L9.67 2.70L9.67 2.70Q10.12 2.30 10.85 2.30L10.85 2.30L10.85 2.30Q11.58 2.30 12.03 2.68L12.03 2.68L12.03 2.68Q12.47 3.07 12.47 3.67L12.47 3.67L12.47 3.67Q12.47 4.30 12.03 4.71L12.03 4.71L12.03 4.71Q11.58 5.12 10.85 5.12L10.85 5.12ZM18.68 5.84L18.68 5.84Q19.71 5.84 20.56 6.32L20.56 6.32L20.56 6.32Q21.41 6.80 21.90 7.69L21.90 7.69L21.90 7.69Q22.40 8.58 22.40 9.76L22.40 9.76L22.40 9.76Q22.40 10.93 21.90 11.82L21.90 11.82L21.90 11.82Q21.41 12.71 20.56 13.20L20.56 13.20L20.56 13.20Q19.71 13.68 18.68 13.68L18.68 13.68L18.68 13.68Q17.35 13.68 16.56 12.88L16.56 12.88L16.56 16.27L13.90 16.27L13.90 5.96L16.44 5.96L16.44 6.72L16.44 6.72Q17.18 5.84 18.68 5.84L18.68 5.84ZM18.12 11.56L18.12 11.56Q18.82 11.56 19.26 11.08L19.26 11.08L19.26 11.08Q19.71 10.60 19.71 9.76L19.71 9.76L19.71 9.76Q19.71 8.92 19.26 8.43L19.26 8.43L19.26 8.43Q18.82 7.95 18.12 7.95L18.12 7.95L18.12 7.95Q17.42 7.95 16.97 8.43L16.97 8.43L16.97 8.43Q16.52 8.92 16.52 9.76L16.52 9.76L16.52 9.76Q16.52 10.60 16.97 11.08L16.97 11.08L16.97 11.08Q17.42 11.56 18.12 11.56L18.12 11.56ZM28.57 5.84L28.57 5.84Q29.99 5.84 30.85 6.68L30.85 6.68L30.85 6.68Q31.71 7.52 31.71 9.21L31.71 9.21L31.71 13.55L29.05 13.55L29.05 9.65L29.05 9.65Q29.05 8.09 27.80 8.09L27.80 8.09L27.80 8.09Q27.12 8.09 26.70 8.54L26.70 8.54L26.70 8.54Q26.29 8.99 26.29 9.88L26.29 9.88L26.29 13.55L23.63 13.55L23.63 3.16L26.29 3.16L26.29 6.66L26.29 6.66Q26.73 6.26 27.31 6.05L27.31 6.05L27.31 6.05Q27.90 5.84 28.57 5.84L28.57 5.84ZM41.13 9.77L41.13 9.77Q41.13 9.80 41.09 10.43L41.09 10.43L35.57 10.43L35.57 10.43Q35.74 11.02 36.23 11.33L36.23 11.33L36.23 11.33Q36.71 11.65 37.44 11.65L37.44 11.65L37.44 11.65Q37.98 11.65 38.38 11.49L38.38 11.49L38.38 11.49Q38.78 11.34 39.19 10.99L39.19 10.99L40.59 12.45L40.59 12.45Q39.48 13.68 37.35 13.68L37.35 13.68L37.35 13.68Q36.02 13.68 35.01 13.17L35.01 13.17L35.01 13.17Q34.01 12.67 33.45 11.77L33.45 11.77L33.45 11.77Q32.90 10.88 32.90 9.74L32.90 9.74L32.90 9.74Q32.90 8.62 33.44 7.73L33.44 7.73L33.44 7.73Q33.98 6.85 34.93 6.34L34.93 6.34L34.93 6.34Q35.88 5.84 37.07 5.84L37.07 5.84L37.07 5.84Q38.21 5.84 39.13 6.31L39.13 6.31L39.13 6.31Q40.05 6.78 40.59 7.66L40.59 7.66L40.59 7.66Q41.13 8.55 41.13 9.77L41.13 9.77ZM37.09 7.73L37.09 7.73Q36.47 7.73 36.06 8.08L36.06 8.08L36.06 8.08Q35.64 8.43 35.53 9.03L35.53 9.03L38.64 9.03L38.64 9.03Q38.53 8.43 38.11 8.08L38.11 8.08L38.11 8.08Q37.70 7.73 37.09 7.73L37.09 7.73ZM44.90 6.87L44.90 6.87Q45.30 6.36 45.95 6.10L45.95 6.10L45.95 6.10Q46.61 5.84 47.45 5.84L47.45 5.84L47.45 8.23L47.45 8.23Q47.08 8.19 46.84 8.19L46.84 8.19L46.84 8.19Q45.99 8.19 45.51 8.65L45.51 8.65L45.51 8.65Q45.02 9.11 45.02 10.07L45.02 10.07L45.02 13.55L42.36 13.55L42.36 5.96L44.90 5.96L44.90 6.87Z"></path></g><!----><g data-v-423bf9ae="" id="e3cb5d20-4fd8-4af5-bb31-ccce20bff352" transform="matrix(1.2502517147337588,0,0,1.2502517147337588,-33.597060673900565,-17.55559406949854)" stroke="none" fill="black"><path d="M49.967 30.968a6.578 6.578 0 0 0-6.572 6.571 6.579 6.579 0 0 0 6.572 6.571 6.579 6.579 0 0 0 6.572-6.571 6.579 6.579 0 0 0-6.572-6.571zm0 9.528a2.96 2.96 0 0 1-2.957-2.956c0-1.63 1.327-2.958 2.957-2.958s2.958 1.329 2.958 2.958a2.962 2.962 0 0 1-2.958 2.956z"></path><path d="M66.402 50.213a1.84 1.84 0 0 0-.175-.224c-.852-20.701-13.306-33.607-14.995-35.265a1.81 1.81 0 0 0-2.531 0c-1.692 1.66-14.18 14.602-15 35.355-.035.045-.074.084-.105.134-.33.521-8.048 12.965-6.468 31.026a1.804 1.804 0 0 0 1.802 1.65c.747 0 1.428-.464 1.693-1.179 1.291-3.479 3.856-8.999 6.218-11.803a28.26 28.26 0 0 0 2.627 4.62c.252.356.624.611 1.049.715 1.65.405 3.326.698 5.014.885.559 3.37 1.452 6.602 2.854 9.136a1.81 1.81 0 0 0 3.164 0c1.404-2.537 2.297-5.774 2.855-9.149a39.039 39.039 0 0 0 5.013-.871 1.81 1.81 0 0 0 1.049-.715 28.193 28.193 0 0 0 2.649-4.669c2.371 2.786 4.961 8.352 6.261 11.853a1.81 1.81 0 0 0 1.936 1.161 1.804 1.804 0 0 0 1.559-1.633c1.581-18.062-6.14-30.507-6.469-31.027zm-35.74 22.633a52.46 52.46 0 0 1 3.29-14.938 58.45 58.45 0 0 0 .889 5.826c.172.835.384 1.652.622 2.458-1.773 1.548-3.437 4.107-4.801 6.654zm19.305 6.693c-2.162-7.536-1.685-18.124-1.466-21.432.437-.163.971-.305 1.466-.305.467 0 1.014.152 1.467.317.219 3.326.692 13.894-1.467 21.42zm7.924-7.651c-.99.224-1.994.383-3 .518.766-7.748.111-15.167.065-15.656a1.805 1.805 0 0 0-.918-1.412c-.211-.116-2.113-1.151-4.071-1.151-2.059 0-3.903 1.053-4.106 1.173a1.804 1.804 0 0 0-.882 1.391c-.045.49-.701 7.916.067 15.668a35.031 35.031 0 0 1-3.002-.529c-1.768-2.665-2.999-5.65-3.662-8.881-4.834-23.543 7.291-39.568 11.586-44.365 4.295 4.797 16.421 20.822 11.587 44.365-.665 3.228-1.896 6.214-3.664 8.879zm6.594-5.742c.232-.792.439-1.593.608-2.412.419-2.043.707-4.026.9-5.963a52.406 52.406 0 0 1 3.345 15.075c-1.377-2.573-3.062-5.158-4.853-6.7z"></path></g><!----></svg>